<svg width="10" height="110" viewBox="0 0 10 110" fill="none" xmlns="http://www.w3.org/2000/svg">
<path d="M4.228 11V4.352L2.848 4.676V3.5L4.876 2.6H5.824V11H4.228Z" fill="#9CA3AF"/>
<path d="M2.112 35V33.884C2.624 33.46 3.12 33.04 3.6 32.624C4.088 32.208 4.52 31.796 4.896 31.388C5.28 30.98 5.584 30.584 5.808 30.2C6.04 29.808 6.156 29.428 6.156 29.06C6.156 28.716 6.06 28.412 5.868 28.148C5.684 27.884 5.376 27.752 4.944 27.752C4.504 27.752 4.172 27.896 3.948 28.184C3.724 28.472 3.612 28.82 3.612 29.228H2.124C2.14 28.612 2.276 28.1 2.532 27.692C2.788 27.276 3.128 26.968 3.552 26.768C3.976 26.56 4.452 26.456 4.98 26.456C5.836 26.456 6.5 26.692 6.972 27.164C7.452 27.628 7.692 28.232 7.692 28.976C7.692 29.44 7.584 29.892 7.368 30.332C7.16 30.772 6.884 31.196 6.54 31.604C6.196 32.012 5.824 32.396 5.424 32.756C5.024 33.108 4.636 33.436 4.26 33.74H7.896V35H2.112Z" fill="#9CA3AF"/>
<path d="M4.752 60.192C4.016 60.192 3.34933 60.064 2.752 59.808C2.15467 59.5413 1.67467 59.136 1.312 58.592C0.949333 58.048 0.757333 57.3653 0.736 56.544H2.752C2.76267 57.088 2.93867 57.5467 3.28 57.92C3.632 58.2827 4.12267 58.464 4.752 58.464C5.34933 58.464 5.808 58.2987 6.128 57.968C6.448 57.6373 6.608 57.2213 6.608 56.72C6.608 56.1333 6.39467 55.6907 5.968 55.392C5.552 55.0827 5.01333 54.928 4.352 54.928H3.52V53.248H4.368C4.912 53.248 5.36533 53.12 5.728 52.864C6.09067 52.608 6.272 52.2293 6.272 51.728C6.272 51.312 6.13333 50.9813 5.856 50.736C5.58933 50.48 5.216 50.352 4.736 50.352C4.21333 50.352 3.80267 50.5067 3.504 50.816C3.216 51.1253 3.056 51.504 3.024 51.952H1.024C1.06667 50.9173 1.424 50.1013 2.096 49.504C2.77867 48.9067 3.65867 48.608 4.736 48.608C5.504 48.608 6.14933 48.7467 6.672 49.024C7.20533 49.2907 7.60533 49.648 7.872 50.096C8.14933 50.544 8.288 51.04 8.288 51.584C8.288 52.2133 8.112 52.7467 7.76 53.184C7.41867 53.6107 6.992 53.8987 6.48 54.048C7.10933 54.176 7.62133 54.4853 8.016 54.976C8.41067 55.456 8.608 56.064 8.608 56.8C8.608 57.4187 8.45867 57.984 8.16 58.496C7.86133 59.008 7.424 59.4187 6.848 59.728C6.28267 60.0373 5.584 60.192 4.752 60.192Z" fill="white"/>
<path d="M5.656 83V81.44H1.516V80.216L5.452 74.6H7.192V80.108H8.296V81.44H7.192V83H5.656ZM3.16 80.108H5.752V76.292L3.16 80.108Z" fill="#9CA3AF"/>
<path d="M4.828 107.144C4.212 107.144 3.68 107.036 3.232 106.82C2.792 106.604 2.444 106.308 2.188 105.932C1.94 105.548 1.796 105.116 1.756 104.636H3.256C3.328 104.98 3.504 105.268 3.784 105.5C4.064 105.724 4.412 105.836 4.828 105.836C5.276 105.836 5.64 105.672 5.92 105.344C6.208 105.016 6.352 104.608 6.352 104.12C6.352 103.616 6.208 103.216 5.92 102.92C5.64 102.624 5.284 102.476 4.852 102.476C4.492 102.476 4.18 102.564 3.916 102.74C3.652 102.916 3.464 103.136 3.352 103.4H1.876L2.596 98.6H7.252V99.944H3.748L3.364 101.888C3.54 101.696 3.78 101.54 4.084 101.42C4.388 101.292 4.728 101.228 5.104 101.228C5.704 101.228 6.204 101.364 6.604 101.636C7.004 101.9 7.308 102.252 7.516 102.692C7.724 103.124 7.828 103.596 7.828 104.108C7.828 104.692 7.7 105.212 7.444 105.668C7.196 106.124 6.844 106.484 6.388 106.748C5.94 107.012 5.42 107.144 4.828 107.144Z" fill="#9CA3AF"/>
</svg>
